<?xml version="1.0" encoding="UTF-8"?>
<!DOCTYPE svg PUBLIC "-//W3C//DTD SVG 1.1//EN" "http://www.w3.org/Graphics/SVG/1.1/DTD/svg11.dtd">
<!-- Creator: CorelDRAW 2018 (64 Bit Versão de avaliação) -->
<svg xmlns="http://www.w3.org/2000/svg" xml:space="preserve" width="3083px" height="81px" version="1.1" style="shape-rendering:geometricPrecision; text-rendering:geometricPrecision; image-rendering:optimizeQuality; fill-rule:evenodd; clip-rule:evenodd"
viewBox="0 0 3083 81.05"
 xmlns:xlink="http://www.w3.org/1999/xlink">
 <defs>
  <style type="text/css">
   <![CDATA[
    .fil0 {fill:black}
   ]]>
  </style>
 </defs>
 <g id="Camada_x0020_1">
  <metadata id="CorelCorpID_0Corel-Layer"/>
  <path class="fil0" d="M2312.25 81.05l0 -13.17 -25.77 -25.76 -6.59 6.58 32.36 32.35zm770.75 0l0 -13.17 -25.77 -25.76 -6.58 6.58 32.35 32.35zm0 -33.94l0 -13.17 -15.38 15.38 6.58 6.59 8.8 -8.8zm0 -33.94l0 -13.17 -15.38 15.38 6.58 6.58 8.8 -8.79zm-192.69 0l25.77 25.77 6.58 -6.59 -25.76 -25.77 -6.59 -6.58 -15.38 15.38 6.59 6.58 8.79 -8.79zm0 33.94l15.38 -15.38 -6.58 -6.59 -8.8 8.8 -15.38 15.38 6.59 6.59 8.79 -8.8zm0 33.94l6.59 -6.58 8.79 -8.8 -6.58 -6.58 -8.8 8.79 -25.77 -25.76 -6.58 6.58 32.35 32.35zm110.23 -33.23l34.64 0 22.68 -22.68 6.58 6.59 -25.41 25.41 -42.35 0 -8.44 -8.44 6.59 -6.59 5.71 5.71zm-62.4 0l34.63 0 23.91 -23.91 33.45 0 8.9 0 8.44 8.44 -6.59 6.59 -5.7 -5.71 -34.64 0 -23.91 23.91 -42.35 0 -8.44 -8.44 6.59 -6.58 5.71 5.7zm9.31 -23.91l29.18 0 8.44 8.44 -6.59 6.58 -5.71 -5.7 -34.63 0 -22.68 22.68 -6.59 -6.59 25.41 -25.41 13.17 0zm-38.58 -8.53l15.38 -15.38 13.17 0 98.47 0 13.17 0 32.35 32.35 -6.58 6.58 -29.63 -29.62 -117.09 0 -12.65 12.65 -6.59 -6.58zm136.33 56.36l12.66 -12.65 6.58 6.58 -15.38 15.38 -1.76 0 -122.07 0 -0.98 0 -32.35 -32.35 6.59 -6.59 29.62 29.63 117.09 0zm-347.58 -58.57l25.77 25.77 6.58 -6.59 -25.76 -25.77 -6.59 -6.58 -15.38 15.38 6.59 6.58 8.79 -8.79zm0 33.94l15.39 -15.38 -6.59 -6.59 -8.8 8.8 -15.38 15.38 6.58 6.59 8.8 -8.8zm0 33.94l6.59 -6.58 8.8 -8.8 -6.59 -6.58 -8.8 8.79 -25.76 -25.76 -6.59 6.58 32.35 32.35zm110.23 -33.23l34.64 0 22.68 -22.68 6.58 6.59 -25.41 25.41 -42.34 0 -8.44 -8.44 6.58 -6.59 5.71 5.71zm-62.4 0l34.63 0 23.92 -23.91 33.44 0 8.9 0 8.44 8.44 -6.58 6.59 -5.71 -5.71 -34.64 0 -23.91 23.91 -42.35 0 -8.44 -8.44 6.59 -6.58 5.71 5.7zm9.31 -23.91l29.18 0 8.44 8.44 -6.59 6.58 -5.71 -5.7 -34.63 0 -22.68 22.68 -6.59 -6.59 25.41 -25.41 13.17 0zm-38.58 -8.53l15.38 -15.38 13.18 0 -0.01 0 98.47 0 13.17 0 32.35 32.35 -6.58 6.58 -29.62 -29.62 -117.1 0 -12.65 12.65 -6.59 -6.58zm136.33 56.36l12.65 -12.65 6.59 6.58 -15.38 15.38 -1.76 0 -122.06 0 -0.99 0 -32.35 -32.35 6.59 -6.59 29.62 29.63 117.09 0zm-347.57 -58.57l25.76 25.77 6.59 -6.59 -25.77 -25.77 -6.58 -6.58 -15.38 15.38 6.58 6.58 8.8 -8.79zm0 33.94l15.37 -15.38 -6.58 -6.59 -8.79 8.8 -15.38 15.38 6.58 6.59 8.8 -8.8zm0 33.94l6.58 -6.58 8.8 -8.8 -6.59 -6.58 -8.79 8.79 -25.77 -25.76 -6.59 6.58 32.36 32.35zm110.23 -33.23l34.63 0 22.68 -22.68 6.58 6.59 -25.41 25.41 -42.34 0 -8.44 -8.44 6.59 -6.59 5.71 5.71zm-62.41 0l34.63 0 23.91 -23.91 33.46 0 8.89 0 8.44 8.44 -6.58 6.59 -5.71 -5.71 -34.64 0 -23.91 23.91 -42.35 0 -8.43 -8.44 6.58 -6.58 5.71 5.7zm9.32 -23.91l29.17 0 8.44 8.44 -6.59 6.58 -5.71 -5.7 -34.63 0 -22.68 22.68 -6.58 -6.59 25.4 -25.41 13.18 0zm-38.59 -8.53l15.39 -15.38 13.16 0 98.47 0 13.17 0 32.35 32.35 -6.58 6.58 -29.62 -29.62 -117.1 0 -12.65 12.65 -6.59 -6.58zm136.33 56.36l12.66 -12.65 6.58 6.58 -15.38 15.38 -1.76 0 -122.06 0 -0.98 0 -32.36 -32.35 6.59 -6.59 29.62 29.63 117.09 0zm-347.57 -71.74l0 13.17 25.76 25.77 6.59 -6.59 -25.77 -25.77 -6.58 -6.58 0 0zm0 33.94l0 13.17 15.38 -15.38 -6.59 -6.59 -8.79 8.8zm0 33.94l0 13.17 6.58 -6.58 8.8 -8.8 -6.59 -6.58 -8.79 8.79zm110.23 -20.06l34.63 0 22.68 -22.68 6.59 6.59 -25.41 25.41 -42.35 0 -8.44 -8.44 6.59 -6.59 5.71 5.71zm-62.41 0l34.64 0 23.91 -23.91 33.44 0 8.91 0 8.43 8.44 -6.58 6.59 -5.71 -5.71 -34.63 0 -23.91 23.91 -42.35 0 -8.44 -8.44 6.58 -6.58 5.71 5.7zm9.32 -23.91l29.18 0 8.43 8.44 -6.58 6.58 -5.71 -5.7 -34.64 0 -22.68 22.68 -6.58 -6.59 25.41 -25.41 13.17 0zm-38.58 -8.53l15.38 -15.38 13.17 0 98.47 0 13.17 0 32.35 32.35 -6.59 6.58 -29.62 -29.62 -117.09 0 -12.66 12.65 -6.58 -6.58zm136.33 56.36l12.65 -12.65 6.59 6.58 -15.38 15.38 -1.77 0 -122.06 0 -0.98 0 -32.35 -32.35 6.58 -6.59 29.63 29.63 117.09 0zm-347.58 -3.86l-25.77 -25.76 -6.58 6.58 32.35 32.35 0 0 6.58 -6.58 8.8 -8.8 -6.58 -6.58 -8.8 8.79zm192.69 -20.77l0 -13.17 -15.39 15.38 6.59 6.59 8.8 -8.8zm0 -33.94l0 -13.17 -15.38 15.38 6.58 6.58 8.8 -8.79zm-192.69 0l25.77 25.77 6.58 -6.59 -25.77 -25.77 -6.58 -6.58 0 0 -15.38 15.38 6.58 6.58 8.8 -8.79zm0 33.94l15.38 -15.38 -6.59 -6.59 -8.79 8.8 -15.38 15.38 6.58 6.59 8.8 -8.8zm110.23 0.71l34.63 0 22.68 -22.68 6.59 6.59 -25.41 25.41 -42.35 0 -8.44 -8.44 6.59 -6.59 5.71 5.71zm-62.4 0l34.63 0 23.91 -23.91 33.45 0 8.9 0 8.44 8.44 -6.59 6.59 -5.71 -5.71 -34.63 0 -23.92 23.91 -42.34 0 -8.44 -8.44 6.58 -6.58 5.72 5.7zm9.31 -23.91l29.18 0 8.43 8.44 -6.58 6.58 -5.71 -5.7 -34.63 0 -22.68 22.68 -6.59 -6.59 25.41 -25.41 13.17 0zm-38.58 -8.53l15.38 -15.38 13.17 0 98.47 0 13.17 0 32.35 32.35 -6.59 6.58 -29.62 -29.62 -117.09 0 -12.65 12.65 -6.59 -6.58zm136.33 56.36l12.65 -12.65 6.59 6.58 -15.38 15.38 -1.77 0 -122.06 0 -0.98 0 -32.35 -32.35 6.59 -6.59 29.62 29.63 117.09 0zm-347.58 -3.86l-25.77 -25.76 -6.58 6.58 32.35 32.35 6.59 -6.58 8.79 -8.8 -6.58 -6.58 -8.8 8.79zm0 -54.71l25.77 25.77 6.58 -6.59 -25.76 -25.77 -6.59 -6.58 -15.38 15.38 6.59 6.58 8.79 -8.79zm0 33.94l15.38 -15.38 -6.58 -6.59 -8.8 8.8 -15.38 15.38 6.59 6.59 8.79 -8.8zm110.23 0.71l34.63 0 22.68 -22.68 6.59 6.59 -25.41 25.41 -42.35 0 -8.43 -8.44 6.58 -6.59 5.71 5.71zm-62.41 0l34.64 0 23.91 -23.91 33.45 0 8.9 0 8.44 8.44 -6.58 6.59 -5.72 -5.71 -34.63 0 -23.91 23.91 -42.35 0 -8.44 -8.44 6.59 -6.58 5.7 5.7zm9.32 -23.91l29.18 0 8.44 8.44 -6.59 6.58 -5.71 -5.7 -34.63 0 -22.68 22.68 -6.59 -6.59 25.41 -25.41 13.17 0zm-38.58 -8.53l15.38 -15.38 13.17 0 98.47 0 13.17 0 32.35 32.35 -6.59 6.58 -29.62 -29.62 -117.09 0 -12.65 12.65 -6.59 -6.58zm136.33 56.36l12.65 -12.65 6.59 6.58 -15.38 15.38 -1.77 0 -122.05 0 -0.99 0 -32.35 -32.35 6.58 -6.59 29.63 29.63 117.09 0zm-347.58 -3.86l-25.76 -25.76 -6.59 6.58 32.35 32.35 6.59 -6.58 8.8 -8.8 -6.59 -6.58 -8.8 8.79zm0 -54.71l25.77 25.77 6.58 -6.59 -25.76 -25.77 -6.59 -6.58 -15.37 15.38 6.58 6.58 8.79 -8.79zm0 33.94l15.39 -15.38 -6.59 -6.59 -8.8 8.8 -15.38 15.38 6.59 6.59 8.79 -8.8zm110.23 0.71l34.64 0 22.68 -22.68 6.58 6.59 -25.41 25.41 -42.35 0 -8.44 -8.44 6.59 -6.59 5.71 5.71zm-62.4 0l34.63 0 23.91 -23.91 33.45 0 8.9 0 8.44 8.44 -6.59 6.59 -5.7 -5.71 -34.64 0 -23.91 23.91 -42.35 0 -8.44 -8.44 6.59 -6.58 5.71 5.7zm9.31 -23.91l29.18 0 8.44 8.44 -6.59 6.58 -5.71 -5.7 -34.63 0 -22.68 22.68 -6.59 -6.59 25.41 -25.41 13.17 0zm-38.58 -8.53l15.38 -15.38 13.17 0 98.47 0 13.17 0 32.35 32.35 -6.58 6.58 -29.63 -29.62 -117.09 0 -12.65 12.65 -6.59 -6.58zm136.33 56.36l12.66 -12.65 6.58 6.58 -15.38 15.38 -1.76 0 -122.07 0 -0.98 0 -32.34 -32.35 6.58 -6.59 29.62 29.63 117.09 0zm-347.57 -3.86l-25.77 -25.76 -6.59 6.58 32.36 32.35 6.58 -6.58 8.8 -8.8 -6.59 -6.58 -8.79 8.79zm0 -54.71l25.76 25.77 6.59 -6.59 -25.77 -25.77 -6.58 -6.58 -15.38 15.38 6.58 6.58 8.8 -8.79zm0 33.94l15.38 -15.38 -6.59 -6.59 -8.79 8.8 -15.39 15.38 6.59 6.59 8.8 -8.8zm110.23 0.71l34.63 0 22.68 -22.68 6.58 6.59 -25.4 25.41 -42.35 0 -8.44 -8.44 6.58 -6.59 5.72 5.71zm-62.41 0l34.63 0 23.92 -23.91 33.44 0 8.9 0 8.44 8.44 -6.58 6.59 -5.71 -5.71 -34.63 0 -23.92 23.91 -42.34 0 -8.45 -8.44 6.59 -6.58 5.71 5.7zm9.32 -23.91l29.17 0 8.44 8.44 -6.58 6.58 -5.71 -5.7 -34.64 0 -22.68 22.68 -6.58 -6.59 25.41 -25.41 13.17 0zm-38.58 -8.53l15.38 -15.38 13.17 0 98.47 0 -0.01 0 13.18 0 32.35 32.35 -6.59 6.58 -29.62 -29.62 -117.1 0 -12.65 12.65 -6.58 -6.58zm136.33 56.36l12.65 -12.65 6.58 6.58 -15.37 15.38 -1.77 0 -122.06 0 -0.98 0 -32.35 -32.35 6.58 -6.59 29.63 29.63 117.09 0zm-347.58 -3.86l-25.77 -25.76 -6.58 6.58 32.35 32.35 0 0 6.58 -6.58 8.8 -8.8 -6.58 -6.58 -8.8 8.79zm0 -54.71l25.77 25.77 6.58 -6.59 -25.77 -25.77 -6.58 -6.58 0 0 -15.38 15.38 6.58 6.58 8.8 -8.79zm0 33.94l15.38 -15.38 -6.59 -6.59 -8.79 8.8 -15.38 15.38 6.58 6.59 8.8 -8.8zm110.23 0.71l34.63 0 22.68 -22.68 6.59 6.59 -25.41 25.41 -42.35 0 -8.44 -8.44 6.59 -6.59 5.71 5.71zm-62.4 0l34.63 0 23.91 -23.91 33.45 0 8.9 0 8.44 8.44 -6.59 6.59 -5.71 -5.71 -34.63 0 -23.92 23.91 -42.34 0 -8.44 -8.44 6.58 -6.58 5.72 5.7zm9.31 -23.91l29.17 0 8.44 8.44 -6.58 6.58 -5.71 -5.7 -34.63 0 -22.68 22.68 -6.59 -6.59 25.41 -25.41 13.17 0zm-38.58 -8.53l15.38 -15.38 13.17 0 98.47 0 13.17 0 32.35 32.35 -6.59 6.58 -29.62 -29.62 -117.1 0 -12.64 12.65 -6.59 -6.58zm136.33 56.36l12.65 -12.65 6.59 6.58 -15.38 15.38 -1.77 0 -122.06 0 -0.98 0 -32.35 -32.35 6.58 -6.59 29.63 29.63 117.09 0zm-347.58 -3.86l-25.76 -25.76 -6.59 6.58 32.35 32.35 0 0 6.59 -6.58 8.79 -8.8 -6.58 -6.58 -8.8 8.79zm0 -54.71l25.77 25.77 6.58 -6.59 -25.76 -25.77 -6.59 -6.58 0 0 -15.38 15.38 6.59 6.58 8.79 -8.79zm0 33.94l15.38 -15.38 -6.58 -6.59 -8.8 8.8 -15.38 15.38 6.59 6.59 8.79 -8.8zm110.23 0.71l34.63 0 22.68 -22.68 6.59 6.59 -25.41 25.41 -42.35 0 -8.43 -8.44 6.58 -6.59 5.71 5.71zm-62.4 0l34.63 0 23.91 -23.91 33.45 0 8.9 0 8.44 8.44 -6.58 6.59 -5.72 -5.71 -34.63 0 -23.91 23.91 -42.35 0 -8.44 -8.44 6.59 -6.58 5.71 5.7zm9.31 -23.91l29.18 0 8.44 8.44 -6.59 6.58 -5.71 -5.7 -34.63 0 -22.68 22.68 -6.59 -6.59 25.41 -25.41 13.17 0zm-38.58 -8.53l15.38 -15.38 13.17 0 98.47 0 13.17 0 32.35 32.35 -6.59 6.58 -29.62 -29.62 -117.09 0 -12.65 12.65 -6.59 -6.58zm136.33 56.36l12.65 -12.65 6.59 6.58 -15.38 15.38 -1.77 0 -122.05 0 -0.99 0 -32.35 -32.35 6.59 -6.59 29.62 29.63 117.09 0zm-347.57 -3.86l-25.77 -25.76 -6.58 6.58 32.35 32.35 6.58 -6.58 8.8 -8.8 -6.59 -6.58 -8.79 8.79zm0 -54.71l25.76 25.77 6.59 -6.59 -25.77 -25.77 -6.58 -6.58 -15.38 15.38 6.58 6.58 8.8 -8.79zm0 33.94l15.38 -15.38 -6.59 -6.59 -8.79 8.8 -15.38 15.38 6.58 6.59 8.8 -8.8zm110.22 0.71l34.64 0 22.68 -22.68 6.58 6.59 -25.41 25.41 -42.35 0 -8.43 -8.44 6.59 -6.59 5.7 5.71zm-62.4 0l34.63 0 23.91 -23.91 33.45 0 8.9 0 8.44 8.44 -6.58 6.59 -5.71 -5.71 -34.64 0 -23.91 23.91 -42.35 0 -8.43 -8.44 6.58 -6.58 5.71 5.7zm9.31 -23.91l29.18 0 8.44 8.44 -6.59 6.58 -5.71 -5.7 -34.63 0 -22.68 22.68 -6.59 -6.59 25.41 -25.41 13.17 0zm-38.58 -8.53l15.39 -15.38 13.16 0 98.47 0 13.17 0 32.35 32.35 -6.58 6.58 -29.63 -29.62 -117.09 0 -12.65 12.65 -6.59 -6.58zm136.33 56.36l12.66 -12.65 6.58 6.58 -15.38 15.38 -1.76 0 -122.06 0 -0.98 0 -32.35 -32.35 6.58 -6.59 29.62 29.63 117.09 0zm-347.57 -3.86l-25.77 -25.76 -6.58 6.58 32.35 32.35 6.58 -6.58 8.8 -8.8 -6.59 -6.58 -8.79 8.79zm0 -54.71l25.76 25.77 6.59 -6.59 -25.77 -25.77 -6.58 -6.58 -15.38 15.38 6.59 6.58 8.79 -8.79zm0 33.94l15.38 -15.38 -6.59 -6.59 -8.79 8.8 -15.38 15.38 6.58 6.59 8.8 -8.8zm110.23 0.71l34.63 0 22.68 -22.68 6.59 6.59 -25.41 25.41 -42.35 0 -8.44 -8.44 6.59 -6.59 5.71 5.71zm-62.41 0l34.64 0 23.91 -23.91 33.44 0 8.91 0 8.43 8.44 -6.58 6.59 -5.71 -5.71 -34.63 0 -23.91 23.91 -42.35 0 -8.44 -8.44 6.58 -6.58 5.71 5.7zm9.32 -23.91l29.18 0 8.43 8.44 -6.58 6.58 -5.71 -5.7 -34.64 0 -22.68 22.68 -6.58 -6.59 25.41 -25.41 13.17 0zm-38.58 -8.53l15.38 -15.38 13.17 0 98.47 0 13.17 0 32.35 32.35 -6.59 6.58 -29.62 -29.62 -117.09 0 -12.66 12.65 -6.58 -6.58zm136.33 56.36l12.65 -12.65 6.59 6.58 -15.38 15.38 -1.77 0 -122.06 0 -0.98 0 -32.35 -32.35 6.58 -6.59 29.63 29.63 117.09 0zm-347.58 -3.86l-25.77 -25.76 -6.58 6.58 32.35 32.35 6.58 -6.58 8.8 -8.8 -6.58 -6.58 -8.8 8.79zm0 -54.71l25.77 25.77 6.58 -6.59 -25.77 -25.77 -6.58 -6.58 -15.38 15.38 6.59 6.58 8.79 -8.79zm0 33.94l15.38 -15.38 -6.58 -6.59 -8.8 8.8 -15.38 15.38 6.58 6.59 8.8 -8.8zm110.23 0.71l34.64 0 22.67 -22.68 6.59 6.59 -25.41 25.41 -42.35 0 -8.44 -8.44 6.59 -6.59 5.71 5.71zm-62.4 0l34.63 0 23.91 -23.91 42.35 0 8.44 8.44 -6.59 6.59 -5.71 -5.71 -34.63 0 -23.91 23.91 -42.35 0 -8.44 -8.44 6.58 -6.58 5.72 5.7zm9.31 -23.91l29.18 0 8.43 8.44 -6.58 6.58 -5.71 -5.7 -34.63 0 -22.68 22.68 -6.59 -6.59 25.41 -25.41 13.17 0zm-38.58 -8.53l15.38 -15.38 13.17 0 98.47 0 13.17 0 32.35 32.35 -6.59 6.58 -29.62 -29.62 -117.09 0 -12.65 12.65 -6.59 -6.58zm136.33 56.36l12.65 -12.65 6.59 6.58 -15.38 15.38 -1.77 0 -122.06 0 -0.98 0 -32.35 -32.35 6.59 -6.59 29.62 29.63 117.09 0zm-347.58 -3.86l-25.76 -25.76 -6.59 6.58 32.35 32.35 6.59 -6.58 8.79 -8.8 -6.58 -6.58 -8.8 8.79zm0 -54.71l25.77 25.77 6.59 -6.59 -25.77 -25.77 -6.59 -6.58 -15.38 15.38 6.59 6.58 8.79 -8.79zm0 33.94l15.38 -15.38 -6.58 -6.59 -8.8 8.8 -15.38 15.38 6.59 6.59 8.79 -8.8zm110.23 0.71l34.64 0 22.68 -22.68 6.58 6.59 -25.41 25.41 -42.34 0 -8.44 -8.44 6.58 -6.59 5.71 5.71zm-62.4 0l34.63 0 23.91 -23.91 42.35 0 8.44 8.44 -6.58 6.59 -5.71 -5.71 -34.64 0 -23.91 23.91 -42.35 0 -8.44 -8.44 6.59 -6.58 5.71 5.7zm9.31 -23.91l29.18 0 8.44 8.44 -6.59 6.58 -5.71 -5.7 -34.63 0 -22.68 22.68 -6.59 -6.59 25.41 -25.41 13.17 0zm-38.58 -8.53l15.38 -15.38 13.17 0 98.47 0 13.17 0 32.35 32.35 -6.59 6.58 -29.61 -29.62 -117.1 0 -12.65 12.65 -6.59 -6.58zm136.33 56.36l12.66 -12.65 6.58 6.58 -15.38 15.38 -1.76 0 -122.06 0 -0.99 0 -32.35 -32.35 6.59 -6.59 29.62 29.63 117.09 0zm-347.57 -3.86l-25.77 -25.76 -6.58 6.58 32.35 32.35 6.58 -6.58 8.8 -8.8 -6.59 -6.58 -8.79 8.79zm0 -54.71l25.76 25.77 6.59 -6.59 -25.77 -25.77 -6.58 -6.58 -15.38 15.38 6.58 6.58 8.8 -8.79zm0 33.94l15.38 -15.38 -6.59 -6.59 -8.79 8.8 -15.39 15.38 6.59 6.59 8.8 -8.8zm110.23 0.71l34.63 0 22.68 -22.68 6.58 6.59 -25.4 25.41 -42.35 0 -8.44 -8.44 6.59 -6.59 5.71 5.71zm-62.41 0l34.63 0 23.92 -23.91 33.44 0 8.91 0 8.43 8.44 -6.58 6.59 -5.71 -5.71 -34.63 0 -23.92 23.91 -42.35 0 -8.43 -8.44 6.58 -6.58 5.71 5.7zm9.32 -23.91l29.17 0 8.44 8.44 -6.59 6.58 -5.7 -5.7 -34.64 0 -22.68 22.68 -6.58 -6.59 25.4 -25.41 13.18 0zm-38.58 -8.53l15.38 -15.38 13.17 0 98.46 0 13.17 0 32.35 32.35 -6.58 6.58 -29.62 -29.62 -117.1 0 -12.65 12.65 -6.58 -6.58zm136.33 56.36l12.65 -12.65 6.58 6.58 -15.38 15.38 -1.76 0 -122.06 0 -0.98 0 -32.35 -32.35 6.58 -6.59 29.62 29.63 117.1 0zm-154.89 -58.57l0 -13.17 0 13.17zm-192.69 -13.17l0 13.17 25.77 25.77 6.58 -6.59 -25.76 -25.77 -6.59 -6.58 0 0zm0 33.94l0 13.17 15.38 -15.38 -6.59 -6.59 -8.79 8.8zm0 33.94l0 13.17 0 0 6.59 -6.58 8.79 -8.8 -6.59 -6.58 -8.79 8.79zm110.23 -20.06l34.63 0 22.68 -22.68 6.59 6.59 -25.41 25.41 -42.35 0 -8.44 -8.44 6.59 -6.59 5.71 5.71zm-62.41 0l34.64 0 23.91 -23.91 33.45 0 8.9 0 8.44 8.44 -6.59 6.59 -5.71 -5.71 -34.63 0 -23.91 23.91 -42.35 0 -8.44 -8.44 6.58 -6.58 5.71 5.7zm9.32 -23.91l29.18 0 8.43 8.44 -6.58 6.58 -5.71 -5.7 -34.64 0 -22.67 22.68 -6.59 -6.59 25.41 -25.41 13.17 0zm-38.58 -8.53l15.38 -15.38 13.17 0 98.47 0 13.17 0 32.35 32.35 -6.59 6.58 -29.62 -29.62 -117.09 0 -12.66 12.65 -6.58 -6.58zm136.33 56.36l12.65 -12.65 6.59 6.58 -15.38 15.38 -1.77 0 -122.06 0 -0.98 0 -32.35 -32.35 6.58 -6.59 29.63 29.63 117.09 0z"/>
 </g>
</svg>
